<svg xmlns="http://www.w3.org/2000/svg" width="58.5" height="58.187" viewBox="0 0 58.5 58.187">
  <path id="plug" d="M29.251,46.862a12.811,12.811,0,0,1-12.8-12.8V23.22H15.6a.975.975,0,0,1,0-1.95h5.118V11.155a.975.975,0,1,1,1.95,0V21.27H35.832V11.155a.975.975,0,1,1,1.95,0V21.27H42.9a.975.975,0,0,1,0,1.95h-24.5V34.066a10.846,10.846,0,1,0,21.692,0V26.51a.975.975,0,0,1,1.95,0v7.556a12.81,12.81,0,0,1-12.8,12.8Zm0-6.459a.975.975,0,0,0,.873-.539l2.925-5.85a.976.976,0,0,0-.872-1.411H27.9l2.219-4.439a.975.975,0,1,0-1.744-.872l-2.925,5.85a.976.976,0,0,0,.872,1.411H30.6L28.38,38.992a.976.976,0,0,0,.871,1.411Zm26.788-.751a.975.975,0,0,0-1.257.566A27.349,27.349,0,0,1,33.618,57.483a2.927,2.927,0,0,1-3.392-2.888V51.128h1.1a.975.975,0,0,0,0-1.95H27.18a.975.975,0,1,0,0,1.95h1.1v3.467a4.878,4.878,0,0,0,5.651,4.813A29.3,29.3,0,0,0,56.6,40.91.975.975,0,0,0,56.039,39.653Zm1.056-4.09a.975.975,0,0,0-1.158.748q-.052.242-.108.482a.975.975,0,0,0,1.9.445q.06-.258.116-.517a.975.975,0,0,0-.748-1.158ZM29.252,1.284A29.26,29.26,0,0,0,11.392,53.7a.975.975,0,1,0,1.192-1.543A27.3,27.3,0,1,1,56.55,30.532a.975.975,0,1,0,1.95,0A29.232,29.232,0,0,0,29.252,1.284Z" transform="translate(0.001 -1.284)"/>
</svg>
