<svg xmlns="http://www.w3.org/2000/svg" width="58.5" height="40.06" viewBox="0 0 58.5 40.06">
  <path id="cloud" d="M55.56,86.057A13.223,13.223,0,0,0,49,81.705a14.822,14.822,0,0,0-28.928-3.957A10.035,10.035,0,0,0,6.306,87,10.731,10.731,0,0,0,10.731,107.5H45.343A13.157,13.157,0,0,0,55.56,86.057Zm-10.217,19.4H10.731A8.681,8.681,0,0,1,7.71,88.634,1.025,1.025,0,0,0,8.377,87.6c-.014-.208-.02-.379-.02-.537a7.984,7.984,0,0,1,11.877-6.973,1.025,1.025,0,0,0,1.5-.668,12.771,12.771,0,0,1,25.222,2.837c0,.061,0,.121,0,.182v.04a1.025,1.025,0,0,0,.8,1.018,11.107,11.107,0,0,1-2.414,21.949Z" transform="translate(0 -67.444)"/>
</svg>
