<svg xmlns="http://www.w3.org/2000/svg" width="58.5" height="58.761" viewBox="0 0 58.5 58.761">
  <path id="Path_4565" data-name="Path 4565" d="M59.638,40.769A1.139,1.139,0,0,0,58.6,39.66c-2.709-.237-6.042-2.056-8.493-4.635a1.139,1.139,0,0,0-.825-.354h0a1.139,1.139,0,0,0-.825.354,17.242,17.242,0,0,1-3.694,2.936,20.559,20.559,0,0,0-8.492-5.679c-.029-.012-.058-.022-.088-.032q-.39-.138-.788-.263c2.82-2.813,4.717-6.509,4.717-9.825V20.372a3.766,3.766,0,0,0-.16-6.976A14.047,14.047,0,0,0,29.862,1.357,1.711,1.711,0,0,0,28.191,0H24.065a1.709,1.709,0,0,0-1.651,1.276A14.083,14.083,0,0,0,12.039,13.4a3.765,3.765,0,0,0-.158,6.976v1.788c0,3.313,1.9,7.011,4.718,9.825q-.387.122-.766.255a1.131,1.131,0,0,0-.145.052A20.552,20.552,0,0,0,6.4,38.947,26.544,26.544,0,0,0,1.44,49.814c-.336,1.519-.588,3.428.447,4.718,1.012,1.26,2.822,1.421,4.286,1.421h7.449a1.139,1.139,0,0,0,0-2.277H6.173c-1.362,0-2.207-.192-2.511-.57-.322-.4-.321-1.343,0-2.8,1.183-5.33,4.077-11.854,11.049-15.147-.214,3.847,1.87,6.361,3.195,7.957a1.139,1.139,0,0,0,1.67.089l6.417-6.241,6.421,6.241a1.139,1.139,0,0,0,.794.322l.061,0a1.139,1.139,0,0,0,.816-.411c1.323-1.6,3.4-4.113,3.192-7.952A18.153,18.153,0,0,1,42.624,39a9.847,9.847,0,0,1-2.661.656,1.139,1.139,0,0,0-1.039,1.108,19.106,19.106,0,0,0,2.419,10.4c.015.029.636,1.141,1.6,2.505H23.931a1.139,1.139,0,1,0,0,2.277H44.753c1.373,1.517,2.992,2.808,4.527,2.808,3.7,0,7.9-7.515,7.938-7.59a19.167,19.167,0,0,0,2.42-10.4ZM37.626,13.15H31.356a24.663,24.663,0,0,1-1.449-9.391,11.773,11.773,0,0,1,7.718,9.391ZM24.633,2.277h2.989c.007,4.408.119,7.393,1.312,10.873H23.324C24.515,9.67,24.626,6.685,24.633,2.277ZM22.349,3.669A24.866,24.866,0,0,1,20.9,13.15H14.365a11.927,11.927,0,0,1,7.983-9.481ZM13.378,15.428H21c.067.054.132.061.186,0H38.614a1.489,1.489,0,0,1,0,2.978H13.378a1.489,1.489,0,1,1,0-2.978Zm.781,6.733V20.683H37.833v1.478c0,4.341-4.206,9.711-9,11.491a7.207,7.207,0,0,1-5.691,0C18.356,31.862,14.159,26.493,14.159,22.161ZM18.885,40.7a7.747,7.747,0,0,1-1.768-6.491q.753-.243,1.559-.441a15.306,15.306,0,0,0,3.671,2.013c.413.153.811.28,1.2.385Zm14.222,0-4.665-4.534c.384-.1.776-.229,1.184-.381a15.3,15.3,0,0,0,3.688-2.016q.8.194,1.559.44A7.751,7.751,0,0,1,33.106,40.7Zm22.106,9.393c-1.347,2.513-4.5,6.389-5.931,6.389s-4.584-3.876-5.932-6.391a16.449,16.449,0,0,1-2.156-8.308,14.3,14.3,0,0,0,3.765-1.332,1.136,1.136,0,0,0,.129-.067,19.187,19.187,0,0,0,4.193-2.974,17.129,17.129,0,0,0,8.087,4.374A16.5,16.5,0,0,1,55.212,50.094Z" transform="translate(-1.146 0)"/>
</svg>
