<svg xmlns="http://www.w3.org/2000/svg" width="58.5" height="64.278" viewBox="0 0 58.5 64.278">
  <g id="Group_3281" data-name="Group 3281" transform="translate(0)">
    <g id="Group_3280" data-name="Group 3280" transform="translate(0)">
      <path id="Path_4526" data-name="Path 4526" d="M80.428,62.111H78.622V5.417a1.083,1.083,0,0,0-1.083-1.083H57.317a1.083,1.083,0,0,0-1.083,1.083v4.694H54.067V5.417a1.083,1.083,0,0,0-1.083-1.083H48.289V1.083a1.083,1.083,0,1,0-2.167,0v3.25H41.428a1.083,1.083,0,0,0-1.083,1.083v4.694h-3.25a1.083,1.083,0,0,0-1.083,1.083v9.028H26.983A1.083,1.083,0,0,0,25.9,21.305V62.111H24.094a1.083,1.083,0,0,0,0,2.167H80.428a1.083,1.083,0,1,0,0-2.167ZM42.511,6.5H51.9v3.611H42.511ZM38.9,62.111h-.722V60.306a1.083,1.083,0,1,0-2.167,0v1.806h-.722V58.5H38.9Zm7.222-27.806V62.111H41.067V57.417a1.083,1.083,0,0,0-1.083-1.083H34.205a1.083,1.083,0,0,0-1.083,1.083v4.694H28.067V22.389H46.122Zm1.083-14.083H38.178V12.278H56.233V33.222H48.289V29.611h3.25a1.083,1.083,0,1,0,0-2.167h-3.25V23.833h3.25a1.083,1.083,0,1,0,0-2.167h-3.25v-.361A1.083,1.083,0,0,0,47.205,20.222ZM66.344,62.111H48.289V35.389H66.344Zm10.111,0H68.511V32.861a1.083,1.083,0,0,0-2.167,0v.361H64.178v-.361a1.083,1.083,0,0,0-2.167,0v.361H58.4V6.5H76.456V62.111Z" transform="translate(-23.011)"/>
      <path id="Path_4527" data-name="Path 4527" d="M254.207,321.538a1.083,1.083,0,0,0,1.083-1.083V300.232a1.083,1.083,0,1,0-2.167,0v20.222A1.083,1.083,0,0,0,254.207,321.538Z" transform="translate(-224.235 -261.593)"/>
      <path id="Path_4528" data-name="Path 4528" d="M288.724,321.538a1.083,1.083,0,0,0,1.083-1.083V300.232a1.083,1.083,0,1,0-2.167,0v20.222A1.083,1.083,0,0,0,288.724,321.538Z" transform="translate(-254.419 -261.593)"/>
      <path id="Path_4529" data-name="Path 4529" d="M323.24,321.538a1.083,1.083,0,0,0,1.083-1.083V300.232a1.083,1.083,0,1,0-2.167,0v20.222A1.083,1.083,0,0,0,323.24,321.538Z" transform="translate(-284.602 -261.593)"/>
      <path id="Path_4530" data-name="Path 4530" d="M334.746,84.151a1.083,1.083,0,0,0,1.083-1.083V81.623a1.083,1.083,0,0,0-2.167,0v1.444A1.083,1.083,0,0,0,334.746,84.151Z" transform="translate(-294.663 -70.429)"/>
      <path id="Path_4531" data-name="Path 4531" d="M369.263,84.151a1.083,1.083,0,0,0,1.083-1.083V81.623a1.083,1.083,0,0,0-2.167,0v1.444A1.083,1.083,0,0,0,369.263,84.151Z" transform="translate(-324.847 -70.429)"/>
      <path id="Path_4532" data-name="Path 4532" d="M403.78,84.151a1.083,1.083,0,0,0,1.083-1.083V81.623a1.083,1.083,0,0,0-2.167,0v1.444A1.083,1.083,0,0,0,403.78,84.151Z" transform="translate(-355.03 -70.429)"/>
      <path id="Path_4533" data-name="Path 4533" d="M334.746,141.678a1.083,1.083,0,0,0,1.083-1.083V139.15a1.083,1.083,0,0,0-2.167,0v1.444A1.083,1.083,0,0,0,334.746,141.678Z" transform="translate(-294.663 -120.734)"/>
      <path id="Path_4534" data-name="Path 4534" d="M369.263,141.678a1.083,1.083,0,0,0,1.083-1.083V139.15a1.083,1.083,0,1,0-2.167,0v1.444A1.083,1.083,0,0,0,369.263,141.678Z" transform="translate(-324.847 -120.734)"/>
      <path id="Path_4535" data-name="Path 4535" d="M403.78,141.678a1.083,1.083,0,0,0,1.083-1.083V139.15a1.083,1.083,0,1,0-2.167,0v1.444A1.083,1.083,0,0,0,403.78,141.678Z" transform="translate(-355.03 -120.734)"/>
      <path id="Path_4536" data-name="Path 4536" d="M334.746,199.207a1.083,1.083,0,0,0,1.083-1.083v-1.444a1.083,1.083,0,1,0-2.167,0v1.444A1.083,1.083,0,0,0,334.746,199.207Z" transform="translate(-294.663 -171.04)"/>
      <path id="Path_4537" data-name="Path 4537" d="M369.263,199.207a1.083,1.083,0,0,0,1.083-1.083v-1.444a1.083,1.083,0,1,0-2.167,0v1.444A1.083,1.083,0,0,0,369.263,199.207Z" transform="translate(-324.847 -171.04)"/>
      <path id="Path_4538" data-name="Path 4538" d="M403.78,199.207a1.083,1.083,0,0,0,1.083-1.083v-1.444a1.083,1.083,0,1,0-2.167,0v1.444A1.083,1.083,0,0,0,403.78,199.207Z" transform="translate(-355.03 -171.04)"/>
      <path id="Path_4539" data-name="Path 4539" d="M93.128,222.218a1.083,1.083,0,0,0,1.083-1.083V219.69a1.083,1.083,0,0,0-2.167,0v1.444A1.083,1.083,0,0,0,93.128,222.218Z" transform="translate(-83.378 -191.163)"/>
      <path id="Path_4540" data-name="Path 4540" d="M127.645,222.218a1.083,1.083,0,0,0,1.083-1.083V219.69a1.083,1.083,0,0,0-2.167,0v1.444A1.083,1.083,0,0,0,127.645,222.218Z" transform="translate(-113.562 -191.163)"/>
      <path id="Path_4541" data-name="Path 4541" d="M162.162,222.218a1.083,1.083,0,0,0,1.083-1.083V219.69a1.083,1.083,0,0,0-2.167,0v1.444A1.083,1.083,0,0,0,162.162,222.218Z" transform="translate(-143.746 -191.163)"/>
      <path id="Path_4542" data-name="Path 4542" d="M93.128,279.746a1.083,1.083,0,0,0,1.083-1.083v-1.444a1.083,1.083,0,1,0-2.167,0v1.444A1.083,1.083,0,0,0,93.128,279.746Z" transform="translate(-83.378 -241.468)"/>
      <path id="Path_4543" data-name="Path 4543" d="M127.645,279.746a1.083,1.083,0,0,0,1.083-1.083v-1.444a1.083,1.083,0,1,0-2.167,0v1.444A1.083,1.083,0,0,0,127.645,279.746Z" transform="translate(-113.562 -241.468)"/>
      <path id="Path_4544" data-name="Path 4544" d="M162.162,279.746a1.083,1.083,0,0,0,1.083-1.083v-1.444a1.083,1.083,0,0,0-2.167,0v1.444A1.083,1.083,0,0,0,162.162,279.746Z" transform="translate(-143.746 -241.468)"/>
      <path id="Path_4545" data-name="Path 4545" d="M93.128,337.274a1.083,1.083,0,0,0,1.083-1.083v-1.444a1.083,1.083,0,1,0-2.167,0v1.444A1.083,1.083,0,0,0,93.128,337.274Z" transform="translate(-83.378 -291.774)"/>
      <path id="Path_4546" data-name="Path 4546" d="M127.645,337.274a1.083,1.083,0,0,0,1.083-1.083v-1.444a1.083,1.083,0,1,0-2.167,0v1.444A1.083,1.083,0,0,0,127.645,337.274Z" transform="translate(-113.562 -291.774)"/>
      <path id="Path_4547" data-name="Path 4547" d="M162.162,337.274a1.083,1.083,0,0,0,1.083-1.083v-1.444a1.083,1.083,0,0,0-2.167,0v1.444A1.083,1.083,0,0,0,162.162,337.274Z" transform="translate(-143.746 -291.774)"/>
      <path id="Path_4548" data-name="Path 4548" d="M93.128,394.8a1.083,1.083,0,0,0,1.083-1.083v-1.444a1.083,1.083,0,1,0-2.167,0v1.444A1.083,1.083,0,0,0,93.128,394.8Z" transform="translate(-83.378 -342.08)"/>
      <path id="Path_4549" data-name="Path 4549" d="M127.645,394.8a1.083,1.083,0,0,0,1.083-1.083v-1.444a1.083,1.083,0,1,0-2.167,0v1.444A1.083,1.083,0,0,0,127.645,394.8Z" transform="translate(-113.562 -342.08)"/>
      <path id="Path_4550" data-name="Path 4550" d="M162.162,394.8a1.083,1.083,0,0,0,1.083-1.083v-1.444a1.083,1.083,0,0,0-2.167,0v1.444A1.083,1.083,0,0,0,162.162,394.8Z" transform="translate(-143.746 -342.08)"/>
      <path id="Path_4551" data-name="Path 4551" d="M403.78,256.735a1.083,1.083,0,0,0,1.083-1.083v-1.444a1.083,1.083,0,1,0-2.167,0v1.444A1.083,1.083,0,0,0,403.78,256.735Z" transform="translate(-355.03 -221.346)"/>
      <path id="Path_4552" data-name="Path 4552" d="M403.78,314.263a1.083,1.083,0,0,0,1.083-1.083v-1.444a1.083,1.083,0,0,0-2.167,0v1.444A1.083,1.083,0,0,0,403.78,314.263Z" transform="translate(-355.03 -271.652)"/>
      <path id="Path_4553" data-name="Path 4553" d="M403.78,371.791a1.083,1.083,0,0,0,1.083-1.083v-1.444a1.083,1.083,0,1,0-2.167,0v1.444A1.083,1.083,0,0,0,403.78,371.791Z" transform="translate(-355.03 -321.958)"/>
      <path id="Path_4554" data-name="Path 4554" d="M403.78,429.319a1.083,1.083,0,0,0,1.083-1.083v-1.444a1.083,1.083,0,1,0-2.167,0v1.444A1.083,1.083,0,0,0,403.78,429.319Z" transform="translate(-355.03 -372.264)"/>
      <path id="Path_4555" data-name="Path 4555" d="M183.417,127.645a1.083,1.083,0,0,0-1.083-1.083h-8.667a1.083,1.083,0,1,0,0,2.167h8.667A1.083,1.083,0,0,0,183.417,127.645Z" transform="translate(-153.806 -110.673)"/>
    </g>
  </g>
</svg>
