<svg xmlns="http://www.w3.org/2000/svg" width="58.5" height="58.5" viewBox="0 0 58.5 58.5">
  <path id="forest" d="M57.643,56.786H50.73V45.061c4.356-.483,7.77-4.6,7.77-9.6,0-4.912-3.3-8.975-7.556-9.566A8.021,8.021,0,0,0,52.6,22.163a.857.857,0,0,0-1.693-.27,6.348,6.348,0,0,1-4.1,4.948,1.558,1.558,0,0,0-1,1.163,5.239,5.239,0,0,1-2.682,3.774,5.032,5.032,0,0,1-3.948.062,5.231,5.231,0,0,1-2.2-1.672v-3.7l3.744-3.743a.857.857,0,0,0-1.212-1.212l-2.532,2.532V18.368a.857.857,0,0,0-1.714,0V22.4L32.73,19.865a.857.857,0,0,0-1.212,1.212l3.744,3.744v5.348a5.244,5.244,0,0,1-2.2,1.671,5.033,5.033,0,0,1-3.949-.062,4.514,4.514,0,0,1-1.953-1.836c.149-3.788-.946-9.323-2.574-14.628a6.373,6.373,0,0,1,.686-.321A1.791,1.791,0,0,0,26.4,13.115a3.8,3.8,0,0,1-.027-.453A3.764,3.764,0,0,1,29.234,9a1.82,1.82,0,0,0,1.378-1.78,5.507,5.507,0,1,1,11.013.009A1.817,1.817,0,0,0,43,9a3.772,3.772,0,0,1,2.837,4.112,1.793,1.793,0,0,0,1.129,1.88,6.37,6.37,0,0,1,3.549,3.5A.857.857,0,1,0,52.1,17.85,8.091,8.091,0,0,0,47.6,13.4a.083.083,0,0,1-.055-.08,5.484,5.484,0,0,0-4.126-5.982.113.113,0,0,1-.076-.117A7.221,7.221,0,1,0,28.9,7.229a.11.11,0,0,1-.075.107,5.475,5.475,0,0,0-4.166,5.326,5.547,5.547,0,0,0,.04.658c.018.148-.528.272-.647.343-.213-.631-.434-1.252-.661-1.856C19.713,2.048,16.029,0,13.586,0,9.321,0,6.06,6.009,4.075,11.049a.857.857,0,0,0,1.595.628c2.493-6.332,5.379-9.964,7.916-9.964,2.65,0,5.639,3.9,8.2,10.7,2.411,6.4,3.673,13.321,3.673,16.844,0,7.049-4.867,12.84-11.015,13.337V35.638h0V32.36l3.576-3.576a.857.857,0,0,0-1.212-1.212l-2.364,2.364V26.353a.857.857,0,1,0-1.714,0V32h0v1.563L10.364,31.2a.857.857,0,1,0-1.212,1.212l3.576,3.576v6.6C6.581,42.1,1.714,36.3,1.714,29.255a53.321,53.321,0,0,1,2.65-13.887.857.857,0,1,0-1.634-.518A54.273,54.273,0,0,0,0,29.255c0,8,5.635,14.562,12.729,15.055V56.786H.857a.857.857,0,0,0,0,1.714H57.643a.857.857,0,0,0,0-1.714Zm-22.381,0H14.443V44.31c6.161-.428,11.221-5.436,12.445-11.987a6.053,6.053,0,0,0,1.481,1,6.835,6.835,0,0,0,6.892-.773Zm13.755,0H36.976V32.551a6.8,6.8,0,0,0,1.573.883,7.261,7.261,0,0,0,2.61.5,7.779,7.779,0,0,1,.088,1.535c0,4.994,3.414,9.113,7.77,9.6Zm.857-21.912a.857.857,0,0,0-.857.857v4.711h0v2.889c-3.408-.486-6.056-3.827-6.056-7.866a9.033,9.033,0,0,1,.191-1.853c2.624-.879,4.131-3.954,4.322-5.192a8.055,8.055,0,0,0,1.632-.835c4.161-.536,7.68,3.243,7.68,7.88,0,4.039-2.647,7.38-6.056,7.866V40.8l2.71-2.71a.857.857,0,0,0-1.212-1.212l-1.5,1.5V35.731A.857.857,0,0,0,49.874,34.874Z" transform="translate(0 0)"/>
</svg>
