<svg xmlns="http://www.w3.org/2000/svg" viewBox="0 0 400.84 85.13"><defs><style>.cls-1{fill:#fff;}</style></defs><g id="Layer_2" data-name="Layer 2"><g id="Layer_1-2" data-name="Layer 1"><path class="cls-1" d="M70,53.55C70,34.91,83.41,22,104.31,22s34.43,12.94,34.43,31.58-13.42,31.58-34.43,31.58S70,72.19,70,53.55Zm45.35,0c0-7.24-4.15-12.47-11-12.47s-11,5.23-11,12.47S97.54,66,104.31,66,115.35,60.79,115.35,53.55Zm69.52,29.56-16-24.46V83.11H145.57V0h23.27V47.37L185.23,24.1h26.36L190.1,51.77l22.2,31.34Zm92.22-23.86H233.63c.36,6.17,4.63,9.85,11.28,9.85,4.87,0,8.07-1.42,9.26-4.39h22.56c-2.14,12.47-14.6,20.42-31.82,20.42-21.25,0-34.55-11.28-34.55-31.46,0-19.83,13.53-31.7,34.07-31.7,19.6,0,33.25,11.75,33.25,28.61A52.93,52.93,0,0,1,277.09,59.25ZM254.41,46.42c-.12-6.41-3.68-10.33-10.21-10.33s-10.33,4.28-10.57,10.33ZM284.93,24.1H308.2V37.28c2.14-9.26,9-14.37,17-14.37a22.35,22.35,0,0,1,4.39.36v22a32.19,32.19,0,0,0-5.94-.48c-8.66,0-15.43,3.8-15.43,18.52V83.11H284.93Zm47.4,29.57c0-18.17,10.57-31.23,26.83-31.23,9.14,0,15.56,4.39,18.29,10.45V24.1h23.39v59H377.45V74.33c-2.62,6-9.5,10.45-18.41,10.45C342.54,84.78,332.33,71.71,332.33,53.67Zm46.19,0c0-7.13-4.16-12.47-11.17-12.47-6.64,0-10.92,5.22-10.92,12.47S360.71,66,367.35,66C374.36,66,378.52,60.67,378.52,53.67ZM23.27,47.14v36H0v-36Zm0-15.2c3-4.75,9.26-9.5,18.29-9.5,14,0,21.61,8.43,21.61,24.93V83.11H39.42V52c0-5.93-2.73-10.09-8.19-10.09a8.4,8.4,0,0,0-8,5.23Z"/></g></g></svg>